<?xml version="1.0" encoding="utf-8"?>
<!-- Generator: Adobe Illustrator 25.4.1, SVG Export Plug-In . SVG Version: 6.00 Build 0)  -->
<svg version="1.1" id="Layer_1" xmlns="http://www.w3.org/2000/svg" xmlns:xlink="http://www.w3.org/1999/xlink" x="0px" y="0px"
	 viewBox="0 0 500 500" style="enable-background:new 0 0 500 500;" xml:space="preserve">
<style type="text/css">
	.st0{fill:#255AD8;}
	.st1{fill:#255AD8;}
	.st2{fill:#255AD8;}
	.st3{fill:#255AD8;}
	.st4{fill:#255AD8;}
</style>
<path d="M443.23,408.52c-0.81-78.11,0.48-73.89-0.64-74.49c-8.35,15.59-48.58,27.74-49.2,22.35c-0.48-4.15,17.52-1.64,37.93-16.49
	c4.7-3.42,8.1-8.58,11.05-12.42c1.03-1.34,0.5-25.26,0.4-26.36c-2.91,3.29-13.18,20.14-39.64,23.55c-1.41,0.18-2.94-0.15-3.1-1.55
	c-0.49-4.4,20.25-0.84,36.75-21.07c2.59-3.18,6.05-9.71,6.05-11.9c-0.02-22.51-0.03-19.89-0.12-21.06
	c-10.67,16.16-27.75,21.78-35.54,22.16c-2.42,0.12-4.01-2.76-0.02-3.92c38.38-11.18,35.61-27.61,35.61-48.1
	c-1.39,1.12-12.44,14.91-29.99,16.46c-2.96,0.26-3.96-3.48-0.3-3.88c11.51-1.24,30.24-13.32,30.23-23.77
	c-0.04-37.84,3.47-22.04-12.76-11.23c-13.05,8.69-13.44,2.15-10.97,0.98c17.28-8.21,23.64-20.02,23.62-27.47
	c-0.07-31.07,3.77-19.11-13.22-5.51c-7.08,5.67-8.23,1.79-6.77,0.33c0.13-0.13,19.88-15.82,19.89-25.36
	c0.03-36.52,3.06-21.76-11.83-8.64c-10.47,9.23-10.99,4.47-8.24,1.59c2.65-2.77,12.69-8.76,19.53-25.12
	c0.81-1.95,0.43-22.34,0.32-23.52c-12.88,19.3-16.68,18.44-15.9,16.05c1.83-5.62,15.31-16.64,16.43-31.51
	c0.51-6.72,4.82-6.78,5.3-0.06c0.97,13.66,13.06,24.78,16.33,31.12c1.57,3.04-4.04,3.67-15.8-15.69
	c-0.12,1.59-0.48,21.69,0.35,23.67c6.84,16.34,16.9,22.3,19.55,25.1c2.79,2.95,1.47,6.16-5,1.17
	c-12.14-9.38-15.06-20.31-15.07-16.42c-0.09,24-0.18,22.87,0.34,24.12c3.74,9.1,10.86,17.05,18.52,22.7
	c4.55,3.35-1.22,9.91-18.81-13.82c-5.01,46.53,25.51,43.78,24.55,49.25c-0.89,5.06-15.66-3.33-23.76-14.73
	c-0.93-1.31-1.03-1.82-1.04-0.05c-0.09,24.97-0.18,23.65,0.38,25.33c5.66,17.04,30.5,21.61,30.91,21.76
	c3.02,1.07,1.79,7.33-13.53,0.38c-16.37-7.43-17.86-16.06-17.87-12.28c-0.04,17.45-0.04,16.56,0.04,16.83
	c5.76,20.1,16.87,24.51,36.55,30.57c2.16,0.66,1.72,3.22-0.17,3.56c-4.6,0.84-26.02-4.98-36.33-22.07
	c-0.2,1.78-0.16,19.06-0.16,20.88c0,2.87,3.98,10.14,8.69,15.03c16.81,17.45,34.54,13.91,34.1,18.07c-0.15,1.44-1.63,1.77-3.05,1.59
	c-45.88-5.7-39.67-49.88-39.87,0.9c-0.01,2.2,9.16,19.03,37.71,26.42c5.76,1.49,9.99,2.39,10.73,2.71c1.88,0.81,1.22,3.04-0.47,3.16
	c-4.33,0.32-32.18-4.69-46.61-22.38c-0.42-0.51-1.21-1.7-1.35-1.1c-0.12,0.51-0.18,73.21-0.28,73.76
	C447.51,408.98,444.06,408.6,443.23,408.52z M456.65,54.67c10.59-7.29,13.58-7.47,12.25-10.07c-2.75-5.4-16.53,0.28-18.13-3.73
	c-3.14-7.9-3.09-9.1-5.15-9.29c-4.33-0.41-3.46,10.59-7.56,10.63c-13.79,0.14-14.42-0.42-15.77,1.83c-1.76,2.92,0.48,3.25,9.6,9.02
	c2.76,1.75,2.4,1.46,1.9,2.94c-6.12,17.83-9.02,21.58,11.64,6.47C466.51,77.52,463.13,74.31,456.65,54.67z M445.45,57.25
	c-7.33-5.12-6.45-2.49-3.4-10.15c2.21-0.47,4.41-0.43,6.76-0.04C451.91,54.74,452.78,52.1,445.45,57.25z M449.07,59.92
	c1.25-0.98,2.5-1.75,3.87-2.74C456.97,67.45,457.77,66.48,449.07,59.92z M437.94,57.19l3.9,2.71
	C432.85,66.7,434.04,67.13,437.94,57.19z M453.87,47.5c6.74,0,6.71-0.72,1.22,3.06L453.87,47.5z M435.79,50.55
	c-5.24-3.59-5.81-3.01,1.23-3.01L435.79,50.55z M446.78,42.39c-3.16,0-3.36,0.66-1.31-3.19C445.99,40.4,446.62,41.26,446.78,42.39z"
	/>
<path d="M331.63,355.44c-3.55,49.35,13.18,47.07-14.17,46.54c-4.16-0.08-3.19-4.1-2.92-8.26c2.79-43.22,1.81-38.28-0.16-38.27
	c-46,0.09-42.92,2.83-40.93-8.24c57.56-319.65,46.19-301.62,65.61-194.14c39.12,216.44,38.2,201.35,33.05,202.42
	C371.69,355.56,344.5,355.44,331.63,355.44z M324.48,262.44c-0.78,0.09-3.67-13.56-8.87-19.94c-8-9.81-15.68-0.98-12.49,13.2
	c3.4,15.11,13.63,27.82,20.44,38.24c3.66,5.6,18.15-25.68,19.72-29.3C354.5,238.67,336.42,221.38,324.48,262.44z M335.03,54.67
	c7.58,22.81,6.58,20.6-9.87,8.76c-1.77-1.27-0.65-1.4-4.7,1.51c-8.86,6.37-8.78,6.31-9.64,6.71c-1.77,0.83-3.48-0.49-3.09-2.38
	c3.48-16.44,7.48-13.11,2.33-16.37c-7.64-4.84-11.49-5.98-9.31-9c1.5-2.07,1.8-1.55,15.72-1.7c3.91-0.04,3.33-10.82,7.42-10.64
	c2.23,0.1,2.21,1.56,5.28,9.3c1.63,4.12,16.71-1.77,18.26,4.1C348.07,47.41,346.03,47.1,335.03,54.67z M320.44,47.07
	c-3.06,7.69-3.94,5.05,3.39,10.17c7.33-5.15,6.46-2.51,3.36-10.18C324.89,46.66,322.73,46.66,320.44,47.07z M327.43,59.9
	c8.31,6.28,8.39,7.74,3.86-2.68L327.43,59.9z M316.33,57.19c-4.03,10.25-4.85,9.33,3.89,2.7L316.33,57.19z M332.22,47.5l1.27,3.06
	C338.77,46.91,339.24,47.5,332.22,47.5z M315.37,47.57c-6.93,0-6.49-0.63-1.18,2.97L315.37,47.57z M323.98,39.43
	c-0.61,0.03-1.41,2.4-1.49,2.93C326.07,42.37,325.61,42.96,323.98,39.43z"/>
<path d="M219.92,253.14c42.06,6.84-31.04,21.7-58.23,5.88c-3.23,1.3-8.71,3.92-6.2,6.37c13.63,13.33,25.51,5.31,59.18,4.64
	c19.43-0.39,23.6,5.97,19.18,8.19c-1.93,0.97-12.42,3.03-13.99,3.3c-27.37,4.72-53.65-11.27-68.27,4.19
	c-1.92,2.03,7.51,6.43,8.85,5.96c27.57-9.59,67.95-6.15,77.29-0.56c16.2,9.7-32.29,20.01-76.67,5.37c-1.35-0.44-0.87-0.44-8,3.11
	c-6.37,3.17,1.53,8.04,8.13,10.8c1.76,0.74,3.82-1.26,15.45-3.07c19.66-3.07,50.62,0.32,60.82,3.54c22.83,7.23-33.49,17.1-73.5,4.38
	c-2.85-0.91-14.48,5.22-16.53,7.37c1.35,2.38,6.43,4.38,8.62,5.3c4.83,2.04,4.13-0.81,23.1-3.47c29.23-4.11,101.86,3.12,49.73,13.32
	c-21.66,4.24-46.67-0.07-68.16-4.34c-2.32-0.46-16.6,5.94-13.81,9.01c5.73,6.34,27.52,8.57,35.94,9.79c6.88,1,11.32-15.3,54.19-8.09
	c26.54,4.46-15.5,15.41-49.28,12.19c-1.61-0.15-6.17,2.59-2.9,5.12c7.87,6.06,1.9,0.78,21.94,3.68c1.78,0.26,3.69,1.26,3.48,3.14
	c-0.24,2.16-2.35,2.23-5.66,2.68c-9.9,1.33-13.06-2.56-18.03-2.27c-21.4,1.24-16.19-1.53-3.37-3.17c-2.94-3.12-5.08-5.04-2.55-9.48
	c0.3-0.53-50.62-5.21-36.47-18.88c6.6-6.38,10.99-4.92,7.94-6.61c-11.51-6.36-13.88-9.37,4.62-17.93c-0.67-0.37-4.96-2.38-7.79-5.29
	c-3.15-3.24-2.72-7.88,0.91-10.44c7.85-5.53,5.41-0.31-1.13-7.07c-6.06-6.27,6.48-12.07,14.82-14.65c1.48-0.46-6.7-1.7-11.65-7.79
	c-5.62-6.91,7.57-11.63,7.52-12.17c-0.53-6.33,9.27-10.69,17.16-14.04c-1.88-0.71-37.47-8.31-9.38-18.69
	c-2.56-0.99-11.92-3.77-7.9-9.71c3.74-5.53,11.97-5.91,8.57-7.48c-3.69-1.7-7.91-4.34-9.31-8.15c-2.1-5.72,4.09-8.19,9.53-10.98
	c-8.21-11,8.7-15.74,5.78-17.91c-7.23-5.36-10.76-9.47-2.06-15.93c4.37-3.25,3.54-1.45,0.52-3.74c-8.18-6.22-4.23-9.86,4.37-14.66
	c-5.56-6.86-0.23-10.17,6.79-15.44c-6.57-4.26-2.57-9.57,3.72-14.19c2.29-1.68,1.48-0.61-1.64-2.46
	c-7.39-4.38-0.46-14.13,10.41-14.35c3.5-0.07,3.95,2.85,0.43,3.17c-6.77,0.62-14.02,6.69-6.71,8.47c8.06,1.96,9.93-1.27,13.73,1.58
	c2.01,1.51,1.7,6.57-6.54,4.01c-3.57-1.11-14.6,8.13-12.03,9.6c6.85,3.92,11.22-2.58,16.84-0.93c6.32,1.86,6.92,10.33-10.24,7.03
	c-3.19-0.61-15.28,6.56-12.11,10.04c3.93,4.29,11.66-4.76,28.5-1.57c18.52,3.51,0.46,17.67-25.52,8.19
	c-1.48-0.54-1.5-0.52-7.35,2.69c-5.31,2.91-1.2,5.46,4.45,7.72c0.45,0.18,1.13-0.03,1.65-0.23c26.54-10.02,48.66,7.86,23.96,9.36
	c-16.02,0.97-24.23-5.88-27.56-3.91c-7.74,4.57-8.58,6.83-5.68,9.83c1.32,1.36,5.95,4.93,7.7,4.18c12.16-5.26,31.38-7.19,37.18-2.96
	c6.5,4.73-10.56,17.05-36.91,7.18c-4.72-1.77-15.66,10.51-8.5,13.77c0.91,0.42,2.59-1.06,10.62-2.23
	c15.99-2.32,33.24,0.88,37.56,5.1c7.13,6.96-18.48,12.1-39.94,4.87c-7.24-2.44-6.73-5.84-15.97,0.54
	c-6.16,4.25,9.12,11.87,12.31,11.15c42.84-9.61,56.21,3.52,40.77,6.6c-22.21,4.43-37.7-2.97-40.79-2.29
	c-5.72,1.27-18.04,5.98-10.66,9.06c15.74,6.58,14.01-1.41,46.63,0.43c20.31,1.15,16.83,5.88,14.81,6.56
	c-22.05,7.34-47.68-0.54-51.02,0.14c-19,3.87-21.87,8.34,7.67,13.87c1.96,0.37,3.87-1.44,15.53-2.91
	c32.85-4.14,34.71,10.17,0.15,8.33c-7.71-0.41-13.59-1.67-14.98-1.19c-6.69,2.27-15.39,5.7-20.22,10.86
	C164.21,254.25,184.57,247.39,219.92,253.14z M236.86,295.37c-0.03-3.2-35.07-10.13-70.48-1.21
	C170.26,296.02,208.99,306.54,236.86,295.37z M167.45,331.15c46.99,10.16,74.35,1.25,74.22-0.13
	C214.89,324.99,167.35,328.9,167.45,331.15z M236.96,315.21c-0.12-2.02-40.73-8.03-67.9-2.16
	C178.18,316.96,209.6,321.65,236.96,315.21z M167,257.56c14.35,6.77,48.78,6.24,59.87,1.33C211.6,253.32,167.1,255.18,167,257.56z
	 M238.44,348.28c-12.82-1.81-35.61-4.74-46.6,4.73C207.77,353.89,223.28,353.06,238.44,348.28z M216.41,190.01
	c-6.04-4.13-29.6-6.09-40.14-2.25C188.4,192.47,205.28,194.75,216.41,190.01z M215.62,166.46c-3.78-5.91-35.68,1.16-32.32,2.26
	C201.88,174.85,214.19,169.89,215.62,166.46z M185.23,276.31c39.79,8.61,78.41-6.33,4.49-0.44
	C188.22,275.99,186.73,276.16,185.23,276.31z M184.82,206.63c0.07,0.71,18.55,5.24,33.34,0.45
	C212.45,203.09,191.29,205.83,184.82,206.63z M185.54,149.6c10,3.79,22.61,3.36,25.49,1.69C207.6,148.56,194.13,147,185.54,149.6z
	 M189.49,222.9c11.89,1.18,18.38,2.06,25.4,1.28C236.19,221.84,194.08,220.93,189.49,222.9z M188.38,134.48
	c7.61,2.57,17.48,1.77,21.69-0.56C206.22,131.67,194.53,132.29,188.38,134.48z M217.48,239.18c-7.46-1.38-14.85-0.57-22.22,0.76
	C202.71,240.78,210.12,240.77,217.48,239.18z M189.15,33.02c0.76-1.86,3.51-2.01,4.45-0.05c4.58,9.59,2.42,9.22,4.91,9.24
	c13.84,0.14,14.73-0.54,16.17,2.07c1.55,2.78-0.47,2.41-12.06,10.36c0.85,2.91,4.5,13.21,4.8,14.29c0.61,2.22-1.26,3.69-3.32,2.59
	c-0.92-0.49-0.75-0.42-11.31-8.04c-1.66-1.2-1.1-1.23-2.55-0.19c-18.6,13.39-16.62,12.64-10.08-8.64
	c-3.69-2.56-7.27-4.78-10.96-7.01c-2.97-1.8-0.79-5.3,2.05-5.31C188.82,42.24,184.44,44.48,189.15,33.02z M188.05,46.98
	c-3.14,7.79-4,5.12,3.34,10.27c7.34-5.16,6.47-2.5,3.33-10.26C190.63,46.71,192.38,46.71,188.05,46.98z M198.89,57.19
	c-1.35,0.97-2.63,1.72-3.84,2.76C203.67,66.46,202.87,67.31,198.89,57.19z M183.97,57.25c-1.23,2.39-2.78,6.55-2.83,7.67
	C189.44,58.63,188.96,60.7,183.97,57.25z M200.98,50.4c1.32-0.59,3.39-2.05,4.03-2.9C198.43,47.5,199.42,46.62,200.98,50.4z
	 M177.74,47.83c4.86,3.1,3.61,3.65,5.23-0.3C177.21,47.53,177.85,47.43,177.74,47.83z M191.38,39.06c-1.83,4.15-2.34,3.3,1.5,3.3
	L191.38,39.06z"/>
<path d="M84.53,267.64c6.11,29.04,33.05,46.93,4.38,37.16c9.78,50.49,51.46,46.38-17.75,49.29c-2.86,0.12-3.48-0.28-3.47,0.5
	c0.06,28.7-0.05,31.64,0.56,40.47c0.32,4.7-3.77,5.53-8.96,5.75c-23.51,1-11.46-5.13-14.2-46.6c-69.7-5.4-36.42,7.6-21.08-49.35
	c-4.49,1.08-6.5,2.58-10.2,2.5c-10.5-0.24,10.63-16.24,14.44-39.5c0.21-1.28-4.53,2.39-10.63,0.63c-8.88-2.56,7.8-10.41,15.14-36.71
	c-21.38,2.23-6.37-0.88,5.33-36.62c-20.07,8.11-0.52-13.36,4.49-40.75c-2.99,0.23-4.47,0.53-6.97,0.03
	c-2.68-0.53-3.91-2.73-1.53-6.04c6.27-8.74,9.06-17.7,11.8-27.39c-1.8,0.15-12.55,1.62-10.19-3.57c1.6-3.52,8.87-8.64,17.89-38.36
	c0.56-1.84,1.03-3.14,2.89-3.1c4.8,0.08,2.29,14.49,18.43,38.3c0.8,1.17,5.15,5.49-0.01,6.78c-2.41,0.6-4.98,0.23-7.83-0.06
	c2.96,15.53,11.45,26.79,12.45,28.64c2.27,4.22-2.47,5.61-7.36,4.96c-2.41-0.32-2.17-0.92-1.33,2.54
	c4.39,18.07,11.62,31.9,12.86,35.03c1.26,3.19-1.23,5.98-7.4,3.61c-1.78-0.68-1.67-0.94-1.27,0.35
	c8.83,28.19,26.74,41.12,5.09,35.72c6.82,25.6,22.66,33.22,16.06,36.21C91.1,270.35,85.36,267.37,84.53,267.64z M16.68,302.73
	c4.12,0.57,11.14-7.4,12-1.44c0.77,5.33-6.42,25.08-20.69,46.65c11.88,2.01,76.28,2.57,96.86,0.06
	c-19.14-29.35-25.21-52.6-17.08-48.61c18.55,9.12,1.37,2.5-7.53-31.26c-2.67-10.12,5.79-3.88,10.76-3.37
	c4.22,0.44-9.05-9.34-15.57-33.68c-2.51-9.37,5.7-2.48,9.83-2.64c-0.03-0.06-25.83-45.11-12.03-38.68c13.9,6.46-0.15,1.74-7.64-36.9
	c-0.42-2.19,0.75-4.01,2.95-3.48c1.9,0.45,4.13,1.68,6.53,0.96c-9.07-13.87-12.75-28.71-12.81-31.54
	c-0.08-3.77,3.34-2.02,10.06-1.48c-30.15-45.5-1.63-45.7-31.82,0.02c10.86-0.97,17.28-6.3-2.69,33.13c6.2,0.59,11.43-5.57,8.68,6.11
	c-8.56,36.35-19.9,39.23-6.74,33.1c6.8-3.17,2.78,5.73,0.61,12.21c-6.67,19.89-14.96,26.88-11.89,26.55
	c2.73-0.29,5.06-2.07,6.63-2.34c8.37-1.44-5.03,25.77-13.7,37.27c-4.74,6.28,14.62-8.23,11.17,4.83
	C28.62,283.1,23.58,292.5,16.68,302.73z M64.31,395.83c-1-13.97-0.27-27.74-0.38-41.62c-5.07-0.1-10.06-0.14-15.1,0.02
	c0.25,26.25,0.28,15.4-0.11,41.65C53.84,397.21,58.94,397.21,64.31,395.83z M45.18,47.57c-11.88-8.08-12.55-7.19-12.44-9.29
	c0.07-1.32,1.5-2.85,2.81-2.99c15.57-1.67,14.16,1.92,15.82-2.23c2.79-6.97,2.72-8.25,4.56-8.51c4.47-0.63,4.21,10.59,7.29,10.6
	c13.27,0.03,16.41-0.53,16.83,2.99c0.35,2.88-4.83,3.33-12.4,9.5c6.83,21.69,7.7,21.38-9.91,8.72c-1.6-1.15-1.01-1.21-2.68,0
	C37.11,69.28,38.38,69.03,45.18,47.57z M50.57,46.08c7.35,5.14,4.33,5.14,11.66,0c-3.09-7.69-0.88-6.26-9.12-6.26L50.57,46.08z
	 M48.9,50.1c-3.99,10.18-4.83,9.32,3.89,2.71L48.9,50.1z M63.89,50.12l-3.88,2.68C68.22,59.03,68.1,60.43,63.89,50.12z M66,43.33
	c1.91-0.94,3.65-2.25,3.9-2.95C63.48,40.39,64.43,39.5,66,43.33z M46.74,43.47l1.23-3.02C41.31,40.45,41.26,39.68,46.74,43.47z
	 M57.9,35.24c-1.9-4.03-1.07-4.16-2.97,0H57.9z"/>
<path d="M39.53,468.2c0.4-39.78,1.36-35.02-0.85-30.85c-9.71,18.29-11.49,5.6-15.98-2.65c-1.82,35.07,1.46,39.78-3.59,40.08
	c-3.48,0-2.83-6.49-2.99-23.76c0-26.41,1.67-26.66,3.67-26.66c6.71,0,9.67,16.32,11.45,16.32c2.33,0,6.6-16.24,11.62-16.24
	c4.97,0,2.48,6.22,2.48,40.17c0,7.94,2.44,8.19,0.34,10.08C42.53,477.54,39.48,472.41,39.53,468.2z M54.05,429.66
	c0-3.08,0.5-3.81,2.14-4.87c10.2,0,17.52-0.81,17.52,2.14c0,3.99-4.43,2.26-14.27,2.82c0.28,5.53,0.43,11.02,0.43,16.49
	c1.27-0.07,9.54-0.52,10.77,0.64c1.13,1.07,1.25,3.35-1.11,3.89c-5.55,1.27-8.96-0.79-9.83,1.11c0.99,21.35-2.86,18.77,12.05,17.95
	c2.86,1.1,5.35,5.78-7.09,4.96C52.79,474.78,54.05,480.58,54.05,429.66z M107.8,475.13c-7.04,0-1.14-18.82-13.93-23.24
	c-1.47-0.51-1.45-3.45-1.45,18.8c0,2.35-1.64,3.5-3.5,3.5c-2.02,0-2.14-1.52-2.14-5.21c0-42.95,1.96-36.58-1.45-36.58
	c-1.87,0-7.29-3.21,5.51-6.28c4.09-0.98,7.86-1.62,12.95,2.99c5.27,4.78,5.29,9.54,1.03,15c-6.73,8.6-7.88,2.42-2.48,6.92
	c3.19,2.66,4.18,5.49,5.34,9.4C110.65,470.43,111.68,475.13,107.8,475.13z M92.76,446.41c14.49-5.05,10.23-16.07,1.62-16.07
	C91.01,430.35,91.9,428.55,92.76,446.41z M143.7,475.13c-7.04,0-1.14-18.82-13.93-23.24c-1.47-0.51-1.45-3.45-1.45,18.8
	c0,2.35-1.64,3.5-3.5,3.5c-2.02,0-2.14-1.52-2.14-5.21c0-42.95,1.96-36.58-1.45-36.58c-1.87,0-7.29-3.21,5.51-6.28
	c4.09-0.98,7.86-1.62,12.95,2.99c5.27,4.78,5.29,9.54,1.03,15c-6.73,8.6-7.88,2.42-2.48,6.92c3.19,2.66,4.18,5.49,5.34,9.4
	C146.54,470.43,147.57,475.13,143.7,475.13z M128.65,446.41c14.49-5.05,10.23-16.07,1.62-16.07
	C126.9,430.35,127.79,428.55,128.65,446.41z M160.79,475.13c-4.65,0-2.27-4.68,3.08-22.22c2.31-6.54,1.34-5.39-2.52-11.02
	c-1.22-1.78-6.96-10.41-6.96-12.56c0.75-2.36,2.75-2.29,4.61-0.98c2.45,1.71,2.22,3.93,8.2,12.43c4.84-11.58,5.08-13.93,8.12-13.93
	c1.31,0,2.74,0.87,2.74,2.14C163.79,462.26,166.64,475.13,160.79,475.13z M219.32,475.13c-6,0-10.52-0.89-13.5-8.38
	c-3.68-9.26-3.36-25.68,1.41-34.65c7.64-14.35,23.17-3.84,18.89,0.21c-1.22,1.15-3.5,1.26-5.08-1.28c0-0.84-1.41-1.31-2.22-1.5
	c-9.94-2.24-11.56,25.24-8.29,34.65c1.63,4.9,4.95,6.67,9.83,6.32c3.89,0-0.38-7.95,4.62-7.95
	C229.99,462.56,229.26,475.13,219.32,475.13z M238.8,475.13c-4.56,0-2.22-2.5-2.22-22.99c0-11.16-0.51-14.16-0.51-25.47
	c1.21-2.66,4.64-2.51,5.3,0.3c0.9,3.84,0.3,5.48,0.68,19.53c16.43-2.1,13.96,3.91,14.06-7.95c0.09-10.49-0.77-15.04,2.86-15.04
	c5.98,0,0.99,16.24,2.48,36.32c0.21,2.81,0.69,10.39-0.09,13.33c-0.59,2.25-4.39,2.13-4.96,0.09c-0.82-2.94-0.44-22.82-1.28-22.82
	c-1.06,0.36-1.46,0.01-8.29,0.3c-5.57,0.23-4.34,0.45-4.62,7.73C241.68,472.93,243.08,474.89,238.8,475.13z M295.21,475.13
	c-7.04,0-1.14-18.82-13.93-23.24c-1.47-0.51-1.45-3.45-1.45,18.8c0,2.35-1.64,3.5-3.5,3.5c-2.02,0-2.14-1.52-2.14-5.21
	c0-42.95,1.96-36.58-1.45-36.58c-1.87,0-7.29-3.21,5.51-6.28c4.09-0.98,7.86-1.62,12.95,2.99c5.27,4.78,5.29,9.54,1.03,15
	c-6.73,8.6-7.88,2.42-2.48,6.92c3.19,2.66,4.18,5.49,5.34,9.4C298.05,470.43,299.08,475.13,295.21,475.13z M280.17,446.41
	c14.49-5.05,10.23-16.07,1.62-16.07C278.41,430.35,279.3,428.55,280.17,446.41z M309.3,475.13c-3.79,0-3.42-1.03-3.42-45.55
	c0-4.67,5.81-5.65,5.81,0.86C311.7,471.99,313.8,475.13,309.3,475.13z M330.58,475.13c-5.34,0-10.43-5.47-10.43-10.94
	c0-3.3,5.77-4.93,5.9,1.2c0,6.84,11.54,8.66,11.54-4.61c0-10.08-6.94-10.79-12.78-14.78c-7.69-5.25-3.7-20.77,7.31-20.77
	c6.88,0,12.01,10.43,5.38,10.43c-4.28,0-1.44-6.07-5.55-6.07c-4.71,0-8.63,11.45-1.37,14.27
	C348.96,450.99,346.14,475.13,330.58,475.13z M363.57,475.13c-5.78,0-1.15-24.74-2.01-42.56c-0.08-1.48,0.44-1.07-5-1.03
	c-5.69,0.05-6.29-4.98,1.11-5.21c5.42,0,7,0.34,12.31,0.34c1.72,0,6.41-1.52,6.41,2.22c0,3.05-6.34,2.74-9.66,2.74
	c0,13.01-1.03,17.79-1.03,31.02C365.7,468.98,367.76,475.13,363.57,475.13z M408,468.2c0.4-39.78,1.36-35.02-0.85-30.85
	c-9.71,18.29-11.49,5.6-15.98-2.65c-1.82,35.07,1.46,39.78-3.59,40.08c-3.48,0-2.83-6.49-2.99-23.76c0-26.41,1.67-26.66,3.67-26.66
	c6.71,0,9.67,16.32,11.45,16.32c2.33,0,6.6-16.24,11.62-16.24c4.97,0,2.48,6.22,2.48,40.17c0,7.94,2.44,8.19,0.34,10.08
	C411.01,477.54,407.96,472.41,408,468.2z M425.69,475.13c-6.97,0,1.8-24.12,4.7-35.89c4.66-18.93,14.4-16.3,16.15-5.64
	c6.61,40.21,8.02,41.02,2.91,41.02c-3.12,0-2.86-2.99-4.27-13.16c-4.82,0-4.65-0.17-14.19-0.17
	C428.89,472.35,430.36,475.13,425.69,475.13z M444.67,457.18c-0.28-1.73-2.93-26.06-4.87-26.06c-2.48,0-7.42,23.42-7.86,25.89
	C436.32,457.01,440.56,457.07,444.67,457.18z M471.16,475.13c-5.34,0-10.43-5.47-10.43-10.94c0-3.3,5.77-4.93,5.9,1.2
	c0,6.84,11.54,8.66,11.54-4.61c0-10.08-6.94-10.79-12.78-14.78c-7.69-5.25-3.7-20.77,7.31-20.77c6.88,0,12.01,10.43,5.38,10.43
	c-4.28,0-1.44-6.07-5.55-6.07c-4.71,0-8.63,11.45-1.37,14.27C489.53,450.99,486.71,475.13,471.16,475.13z"/>
</svg>
