<svg viewBox="0 0 766 1080" xmlns="http://www.w3.org/2000/svg">
  <polyline points="383,540 189,102 152,503 178,347 142,453 465,11 491,487 520,317 310,237 504,159 525,366 482,211 223,373 169,143 278,227 317,199 423,348 598,290 322,293 342,98 145,413 660,166 224,333 219,227 663,317 338,54 613,492 309,72 596,421 376,80 450,339 610,282 308,105 569,457 118,259 290,319 169,320 398,182 354,190 624,336 158,172 552,233 607,290 224,906 445,153 180,340 179,458 305,212 109,419 396,154 154,470 334,259 618,348 590,245 540,214 105,253 639,202 163,295 400,238 287,238 498,280 28,139 621,360 209,247 428,252 345,231 334,280 213,99 544,322 513,318 405,280 369,197 476,277 609,298 487,357 495,119 565,439 157,339 592,261 188,253 179,492 249,130 211,408 191,290 177,311 142,471 499,37 168,352 173,334 163,349 178,644 591,55 43,412 717,0 352,388 339,436 159,223 326,142 467,443 396,128 441,264 194,263 699,219 160,302 242,157 174,335 142,487 143,330 195,322 692,189 232,243 148,443 187,440 150,208 502,347 646,453 109,187 674,431 309,246 208,307 169,230 199,483 397,159 251,324 158,389 397,398 407,227 761,564 246,25 410,962 281,803 256,158 595,258 541,321 455,103 621,435 402,68 230,464 261,274 133,376 150,398 225,198 413,186 235,160 308,185 256,218 422,214 593,282 431,177 555,203 153,340 190,434 580,286 391,287 270,290 199,371 362,214 135,288 403,95 179,423 163,343 643,208 448,204 218,268 415,179 442,253 678,380 259,215 237,235 219,192 430,134 302,268 347,87 197,543 299,93 343,926 162,222 642,288 442,439 383,22 529,267 646,354 320,231 211,240 159,328 597,183 518,390 636,325 333,248 475,146 665,419 473,255 236,618 189,127 632,260 176,276 373,173 263,236 313,195 170,312 399,265 174,202 360,575 168,132 173,517 447,1079 327,467 155,407 219,310 261,285 205,235 149,321 326,284 572,373 65,305 738,246 37,326 503,304 576,294 186,117 132,453 401,178 548,252 605,261 379,400 439,126 376,308 611,223 405,381 278,437 271,385 102,219 636,380 280,154 318,306 232,496 445,163 369,288 597,363 219,191 604,174 437,496 358,974 275,91 146,628 278,150 137,336 382,449 258,477 510,251 453,355 117,245 501,216 106,338 254,277 296,235 155,306 185,385 385,159 186,266 211,471 453,306 423,293 574,389 523,166 174,263 203,289 399,162 514,448 133,498 236,359 62,387 417,110 602,392 621,274 328,243 492,224 402,293 341,142 374,425 130,493 706,340 496,323 316,249 176,283 682,317 412,264 311,119 594,234 507,168 207,298 159,406 561,409 159,298 193,448 133,408 423,229 191,259 614,417 573,374 525,165 177,225 213,264 442,686 274,888 311,412 409,772 251,726 437,597 251,938 280,583 329,990 319,596 305,1010 175,177 218,247 256,163 488,269 613,231 587,634 249,175 199,335 426,472 177,951 629,214 339,316 306,99 563,276 483,139 578,332 118,345 339,213 366,185 204,138 291,250 348,67 527,377 596,259 540,284 524,217 463,166 234,421 252,124 144,380 171,269 127,450 385,446 258,875 439,219 343,215 374,920 436,869 233,530 266,205 754,214 243,122 565,364 629,458 613,298 325,192 680,445 177,953 352,677 270,785 506,306 430,636 313,687 312,774 346,810 259,926 479,430 310,136 245,275 155,258 453,143 470,395 541,241 501,322 529,343 444,314 434,358 458,182 164,295 309,210 544,178 380,392 287,499 473,110 466,620 220,306 602,179 94,387 471,193 120,392 209,225 306,233 719,345 213,252 296,1041 208,494 161,562 461,725 191,806 259,843 492,196 504,310 366,863 214,719 553,180 424,220 620,325 135,98 522,234 287,791 179,589 301,895 271,388 113,382 410,55 639,424 348,127 450,297 643,236 168,841 599,291 598,429 204,397 649,475 463,76 489,498 358,301 395,198 694,352 135,358 753,298 129,173 431,1055 331,374 387,856 276,237 210,877 332,657 262,986 584,226 308,141 468,369 309,180 317,154 115,432 165,243 304,110 113,590 399,821 235,821 416,567 211,960 436,519 225,414 233,96 556,264 266,213 188,232 689,337 507,302 596,301 573,209 167,178 149,428 190,455 624,307 522,302 597,434 453,221 286,241 677,382 430,88 319,777 368,859 277,657 441,663 377,659 164,625 497,550 333,165 508,245 186,344 144,637 201,452 641,465 229,420 234,404 271,528 154,287 164,466 293,211 531,253 400,123 661,334 276,508 281,241 358,941 164,827 514,545 545,227 512,483 403,330 603,382 105,227 382,623 175,908 445,675 177,299 421,238 616,405 544,203 103,130 488,885 129,120 706,363 314,68 583,270 253,73 329,975 337,907 418,618 423,845 301,304 102,447 273,234 238,372 185,318 622,210 175,154 248,387 444,442 601,249 186,239 106,426 204,289 242,125 307,680 481,647 200,287 609,339 174,489 282,466 153,104 466,757 334,565 177,241 475,276 505,300 559,265 602,301 384,538 350,856 351,545 284,1062 382,544 387,886 307,334 548,275 513,483 480,148 91,320 387,875 316,615 331,781 272,236 236,212 287,140 100,660 582,74 156,272 236,382 385,840 304,748 545,137 101,265 321,513 324,396 246,158 317,464 345,483 468,867 257,886 295,938 394,746 303,978 167,773 409,880 263,899 115,305 459,473 630,311 535,203 299,195 327,286 329,199 612,430 450,307 219,161 249,864 283,761 379,990 311,184 333,512 212,92 596,393 305,118 89,605 318,144 259,287 552,200 302,161 576,394 483,192 168,127 650,251 208,848 272,857 422,833 486,766 344,1022 219,611 242,668 173,328 230,257 144,502 357,360 573,214 470,270 423,753 326,428 343,64 67,623 352,114 349,235 464,141 76,431 310,758 348,927 459,768 236,84 248,1015 451,90 598,344 547,327 502,275 181,239 312,147 287,158 146,578 406,886 206,805 581,830 94,335 390,307 559,219 642,297 483,348 455,275 317,99 146,499 210,332 127,297 390,425 253,149 298,247 230,282 267,152 148,504 134,517 152,470 339,898 207,868 341,563 278,1064 312,697 638,313 375,462 270,169 653,424 166,108 652,361 181,215 477,728 161,318 262,155 660,348 175,295 506,968 360,917 254,190 212,249 155,246 158,418 282,317 284,663 268,774 167,560 393,800 227,873 211,880 230,880 275,793 186,580 384,763 336,201 686,433 269,169 521,175 522,195 364,199 551,180 452,531 186,877 635,240 595,430 599,416 222,195 172,339 314,470 174,251 346,190 243,212 273,606 397,121 370,217 96,379 191,429 197,174 498,175 264,214 167,438 319,145 507,342 637,433 129,184 437,143 509,200 628,537 197,133 256,342 246,226 291,226 551,195 362,856 374,818 235,768 130,283 389,84 124,257 218,705 446,998 331,228 509,155 605,269 428,225 523,226 443,189 546,192 264,163 346,203 510,136 115,364 394,420 191,451 287,986 374,510 225,143 460,240 665,383 175,281 469,125 202,321 555,109 187,182 532,175 285,177 368,152 116,380 338,419 436,892 194,942 513,811 368,878 136,511 221,156 169,431 323,473 258,430 180,238 204,496 246,986 213,742 329,872 231,870 393,838 447,132 378,1022 188,853 336,613 352,895 233,806 309,982 237,273 233,708 259,994 106,198 617,412 506,176 175,206 162,527 289,852 230,269 392,635 450,745 276,955 158,393 268,163 608,326 629,510 543,146 433,259 538,252 551,266 594,481 570,352 633,201 330,781 176,791 251,802 492,828 173,527 180,106 165,550 510,854 80,896 397,805 388,890 292,943 251,779 239,772 195,807 377,1046 549,53 138,415 359,482 277,433 381,689 400,963 431,903 165,486 154,534 436,1006 167,583 184,5 381,1033 177,561 367,922 229,634 475,959 394,793 156,828 446,835 422,556 463,199 542,283 529,231 634,540 456,80 162,241 258,963 448,834 271,374 112,326 338,360 225,936 418,820 223,612 428,888 379,726 515,174 585,300 400,188 602,329 640,448 608,260 632,398 478,234 670,252 169,248 284,154 139,277 442,776 289,977 270,857 259,596 269,965 569,946 277,167 379,254 581,257 492,425 624,284 606,396 628,291 233,750 251,660 221,1034 369,606 432,796 292,347 373,887 336,719 398,616 259,1052 272,407 517,416 278,166 262,217 144,529 350,675 304,637 387,394 183,963 332,854 227,879 319,893 147,460 254,214 362,289 192,888 435,558 397,557 400,1011 114,302 389,234 87,352 567,437 580,222 272,476 113,268 414,194 584,221 345,146 575,320 350,104 168,302 215,327 139,365 383,431 274,510 631,339 428,105 595,279 619,345 453,129 283,196 519,331 571,159 402,173 70,240 677,278 280,164 142,488 155,256 461,692 207,619 316,969 186,792 343,712 209,1046 305,156 458,127 401,213 236,260 177,150 522,159 633,623 346,137 360,173 439,326 195,212 656,342 406,337 340,103 284,453 145,280 333,416 503,437 510,154 426,212 641,319 232,761 377,1002 510,61 181,972 543,386 484,435 203,473 371,419 121,556 243,208 727,372 151,191 206,998 325,287 235,157 532,302 626,254 201,197 207,233 540,129 505,400 532,495 343,285 505,93 288,626 391,1009 283,911 572,289 599,482 515,143 107,250 274,214 122,405 216,466 493,438 424,835 182,990 579,207 562,285 630,628 283,243 549,356 570,197 638,317 193,932 196,733 449,786 321,818 328,989 468,659 230,869 632,268 211,740 625,293 450,153 152,197 601,368 592,571 330,296 186,315 312,546 280,900 543,154 620,541 54,203 369,963 513,954 211,264 188,264 187,227 570,126 230,201 670,282 333,199 433,157 250,187 444,142 396,224 566,329 621,452 187,991 489,783 372,825 485,977 333,907 454,756 271,1019 351,844 369,808 324,1015 366,762 325,910 411,586 95,305 279,182 636,476 497,370 386,107 464,168 205,131 508,955 159,886 439,955 356,959 301,951 625,915 73,1044 570,116 179,1074 352,818 186,603 498,876 132,342 250,320 265,589 152,503 140,220 545,293 141,270 272,183 541,353 480,245 173,848 658,329 421,429 117,346 213,184 447,440 430,802 373,564 537,334 329,965 380,947 463,976 409,737 499,993 268,381 366,1062 317,761 500,840 328,760 111,530 409,567 111,370 574,472 621,530 331,337 347,464 368,193 589,275 643,682 74,901 524,960 368,965 501,395 312,456 333,609 288,28 350,577 121,976 385,846 442,660 184,920 241,683 196,1027 467,955 161,1022 602,878 51,460 526,343 466,214 459,1056 191,234 269,332 628,273 547,230 613,241 551,281 566,208 466,483 536,189 659,362 284,318 247,882 421,1050 223,780 114,230 186,673 369,262 159,284 278,134 634,247 589,491 657,298 418,225 608,432 594,431 597,484 562,234 437,194 502,198 391,1057 205,852 323,1043 330,894 155,315 455,279 139,658 500,667 128,539 190,552 632,353 197,510 266,1072 228,893 504,776 60,988 525,1013 383,977 367,535 421,1054 363,621 232,781 512,640 339,659 418,22 266,1052 377,667 78,913 669,309 414,274 453,1010 454,177 564,375 398,441 154,220 230,461 576,461 264,127 591,189 255,120 321,1039 199,759 292,951 444,692 474,446 512,367 618,244 80,948 576,905 274,1019 535,927 117,1076 405,970 268,859 201,1004 435,194 159,615 145,351 255,183 323,749 237,359 314,214 660,267 228,367 152,411 301,240 667,415 385,155 201,690 637,335 499,182 151,275 515,852 227,138 299,364 319,428 260,443 216,497 308,301 344,92 374,261 525,419 636,296 433,520 6,1042 615,426 590,275 425,260 137,466 285,778 323,897 294,787 460,620 412,740 237,926 475,866 233,955 575,784 173,783 555,802 180,511 588,1061 91,337 398,529 614,189 279,310 410,112 524,172 433,265 341,181 348,1052 172,512 658,319 214,318 545,136 253,318 486,244 435,628 329,913 239,834 235,675 135,390 326,315 365,517 300,447 293,416 507,735 365,892 419,807 427,920 167,541 150,118 246,521 182,964 480,631 482,726 258,642 494,978 159,282 668,271 273,995 156,714 294,921 527,934 273,903 227,703 219,510 366,225 570,337 376,278 534,284 229,119 547,265 541,377 126,514 327,656 365,722 299,959 512,935 277,335 316,486 433,223 266,138 170,246 429,998 452,575 402,710 113,524 306,242 135,414 157,275 281,1038 476,777 310,1046 436,882 475,658 320,1013 389,907 140,538 344,729 469,969 185,597 119,123 679,262 472,333 547,271 409,709 229,866 209,488 416,134 264,219 163,292 459,287 622,468 441,133 666,445 134,81 543,1063 234,155 140,579 210,656 330,113 206,296 437,255 497,276 679,553 554,208 436,150 363,252 280,194 223,380 436,454 646,258 411,429 610,208 512,389 532,461 304,117 580,392 627,309 358,655 349,775 233,1021 473,435 496,497 409,1016 330,672 153,393 153,445 333,136 139,440 376,250 505,183 360,395 458,433 659,514 569,196 63,254 466,930 481,252 459,125 103,256 513,664 504,645 390,885 123,506 172,561 216,220 337,1070 291,922 150,879 457,816 436,130 659,319 244,763 134,992 541,561 231,140 168,297 168,598 158,490 338,432 87,362 462,318 417,633 491,129 608,503 555,259 377,111 515,493 188,357 170,492 150,592 368,756 223,1028 421,955 492,990 231,349 107,426 327,292 195,177 401,248 647,389 433,275 181,571 141,509 255,1068 498,856 186,770 467,943 148,859 253,726 208,843 468,638 465,857 149,861 508,393 312,416 194,908 517,1004 266,557 410,981 291,916 428,798 472,614 506,647 138,331 436,202 399,148 529,161 320,547 402,374 546,429 527,372 412,336 481,213 427,107 437,296 159,1072 189,820 269,900 182,830 375,612 288,404 267,376 366,421 278,403 531,324 381,706 204,887 393,1038 352,369 483,179 482,247 279,506 327,360 158,243 430,58 425,436 453,65 293,728 222,410 321,504 261,259 136,323 192,239 526,312 139,304 229,155 233,621 516,868 325,375 325,686 568,307 625,375 643,325 422,495 463,473 440,331 501,725 424,921 206,852 579,795 501,788 355,1001 592,156 98,1074 101,1074 303,1001 507,822 291,990 593,1012 170,992 328,801 225,1002 584,892 181,903 237,881 450,1078 187,1026 516,914 416,1073 359,1064 461,963 301,978 497,833 484,251 474,151 470,781 358,558 100,932 383,645 464,801 423,1026 308,866 341,731 34,945 10,1015 102,1034 471,846 348,999 214,542 208,592 465,564 80,562 442,235 138,1069 259,548 239,911 275,184 507,918 461,243 314,259 302,146 613,177 367,130 489,212 520,193 220,121 636,326 500,182 330,130 409,212 74,439 221,211 392,247 416,168 306,813 201,1010 578,845 401,996 494,1047 378,672 377,729 368,410 105,335 237,357 135,407 285,481 346,398 478,942 383,1013 424,953 472,861 203,951 237,801 267,935 146,741 390,947 541,1003 655,106 342,800 51,914 266,969 208,1048 424,976 352,998 250,873 223,169 192,424 432,1077 24,1037 52,931 536,897 42,1009 407,917 326,818 331,698 571,963 249,1048 341,387 579,235 550,194 396,201 284,403 426,752 439,1028 372,578 251,1035 286,884 338,1048 207,1073 368,847 305,783 190,1019 149,1056 60,904 716,437 206,207 195,281 663,435 106,471 267,634 518,645 373,674 173,249 356,160 526,849 414,945 571,858 292,971 144,976 444,847 340,791 246,300 391,1006 500,166 249,231 495,147 164,303 676,288 124,903 556,795 571,888 409,780 323,378 487,146 222,210 164,333 753,350 193,332 143,574 141,546 183,664 144,379 250,877 193,889 513,825 144,861 553,880 493,1055 440,1008 346,623 444,909 29,1071 160,1050 263,940 621,234 288,423 130,345 572,352 142,909 251,709 577,1001 376,161 552,233 430,187 657,300 558,356 397,94 569,352 484,416 639,374 612,333 579,178 274,153 275,305 203,321 368,336 198,189 91,495 529,856 258,973 176,778 416,907 415,950 376,1001 514,941 91,978 564,954 15,1026 211,898 293,986 34,1078 572,1057 304,880 206,601 459,592 179,376 350,138 208,277 586,430 537,100 186,390 199,315 93,437 497,193 142,903 284,702 251,902 49,958 180,1057 50,953 540,950 341,123 378,200 285,138 703,315 132,203 195,627 435,213 126,571 394,616 117,334 255,671 235,1022 15,1073 509,1027 477,901 504,143 289,171 694,365 121,183 281,1075 95,883 56,928 445,633 451,789 314,924 583,817 470,970 476,1056 631,313 565,760 229,437 87,273 541,910 114,1051 127,924 324,939 484,664 319,561 200,337 148,371 194,492 510,456 610,290 465,78 329,1029 548,1037 233,1019 304,454 405,413 296,177 408,984 272,817 153,925 405,392 286,142 599,457 450,170 194,333 330,472 528,330 494,516 374,204 177,309 437,249 126,322 243,639 262,992 92,1012 431,909 353,1036 162,1025 437,51 192,988 348,576 268,518 525,1049 574,828 465,1010 386,706 471,621 6,977 528,922 464,192 225,197 134,313 445,208 441,165 593,452 593,358 459,272 218,196 258,151 593,412 599,126 442,421 621,473 382,71 265,979 256,570 180,909 444,864 352,391 250,389 138,325 159,587 571,962 379,116 555,264 331,347 574,491 104,334 563,486 301,431 370,315 356,607 315,993 266,940 55,934 121,938 498,387 604,206 329,975 178,830 479,457 461,460 463,192 445,496 518,160 255,131 119,365 610,480 614,361 638,401 512,163 469,923 459,981 518,560 428,352 591,228 453,271 545,207 501,399 457,178 359,459 362,459 447,841 190,167 384,226 303,157 539,205 470,145 275,239 295,491 566,273 586,248 504,501 392,329 140,572 172,179 645,251 258,841 612,265 364,691 295,186 166,258 214,167 357,180 365,120 321,131 632,422 574,505 605,456 481,293 615,316 380,95 699,613 578,370 399,147 316,774 242,312 211,252 359,476 243,333 307,253 458,916 225,964 445,1003 353,1063 162,381 154,443 145,313 198,716 221,1044 135,891 453,670 123,1002 97,955 388,857 288,429 261,764 208,525 366,329 549,183 541,364 610,408 579,329 269,293 234,540 461,122 173,379 124,397 191,195 512,125 617,479 279,885 545,772 600,792 611,340 396,131 150,241 171,1066 82,1050 127,1010 367,505 496,917 469,653 444,694 511,668 502,613 345,1068 255,715 123,885 238,940 398,542 472,963 479,432 279,476 545,408 423,184 111,1053 34,977 67,896 275,738 454,1067 525,646 243,783 263,885 428,834 288,878 378,213 372,488 239,319 317,250 127,477 287,645 109,958 240,990 354,1048 176,588 384,563 586,881 551,772 633,296 593,565 188,784 423,717 380,723 140,599 166,537 208,553 482,672 143,347 446,345 152,447 172,605 189,18 593,962 153,872 330,1076 556,957 107,1078 291,903 188,584 163,301 161,456 369,158 591,317 625,537 565,388 228,983 515,392 306,441 131,1044 37,966 250,1071 433,1069 413,1054 200,1030 474,796 7,1072 761,998 174,1040 502,1035 95,466 536,1021 510,1074 265,990 296,931 629,286 460,121 126,293 282,132 261,484 245,663 606,151 622,723 137,412 183,709 143,185 375,136 196,203 334,903 511,768 493,590 413,999 477,917 488,961 189,786 391,921 501,980 133,225 270,675 193,803 320,673 532,1013 8,977 382,1046 438,565 421,564 469,708 210,144 228,456 447,382 600,536 623,486 575,474 80,466 714,317 401,441 602,309 254,1009 28,1064 79,923 457,963 190,954 33,1043 443,1054 241,966 229,772 573,243 240,355 279,583 296,131 279,196 186,276 279,503 198,297 323,334 635,278 539,220 427,1020 528,973 433,991 572,888 348,746 420,885 30,1075 568,873 323,1078 173,1022 203,938 110,1031 479,162 539,227 681,396 144,450 264,187 503,581 241,921 496,453 564,455 200,448 358,1017 71,905 25,1031 18,1019 328,1025 31,1044 253,948 281,768 209,507 162,212 357,185 175,320 231,242 362,111 277,173 226,238 394,655 172,363 188,805 614,857 235,897 218,221 549,141 8,428 694,467 343,446 646,324 517,142 500,727 524,963 337,546 160,376 333,52 576,1039 65,945 50,931 235,1018 284,1016 419,1043 320,633 426,839 631,283 330,122 168,243 166,326 438,152 583,366 349,284 466,407 534,474 633,348 385,460 142,389 447,970 376,672 622,277 544,167 158,630 194,153 186,461 127,480 189,588 432,581 249,583 114,516 279,439 200,396 423,958 346,727 4,1057 361,1068 142,413 258,771 116,308 616,186 224,334 301,144 115,439 271,113 406,355 468,311 422,657 218,226 371,500 314,486 165,358 134,372 343,275 137,280 158,656 284,290 259,157 424,699 432,851 176,803 477,969 542,861 310,871 135,373 208,579 401,374 605,259 439,531 363,1074 257,1074 332,1066 33,1031 107,960 374,777 376,1011 482,873 587,842 554,798 640,239 432,537 619,236 528,199 407,193 656,301 626,376 364,324 196,123 487,1076 261,1076 534,182 406,314 347,376 570,1054 300,1049 537,623 360,688 211,650 360,559 474,775 272,300 507,195 246,542 270,291 676,179 256,956 374,424 231,983 76,875 114,1068 350,758 465,1077 336,975 438,1072 370,1047 509,826 350,669 622,235 500,163 597,487 648,176 508,513 413,1036 258,615 443,837 525,701 286,110 110,395 296,114 599,405 599,742 154,378 413,160 59,325 262,153 354,363 613,313 624,598 279,1010 304,277 527,905 164,997 366,127 494,468 353,221 235,142 575,178 267,270 341,150 346,263 276,613 435,231 297,95 466,251 146,1065 162,862 183,998 222,757 286,466 523,712 372,619 71,1000 381,1058 75,1047 544,1073 345,675 260,377 414,962 349,996 275,631 321,858 344,1012 60,1057 198,1077 344,887 332,887 551,949 300,787 446,992 322,895 99,940 575,690 566,871 92,941 479,684 320,852 204,298 336,889 117,851 474,867 295,585 387,185 630,367 452,780 127,486 676,456 171,189 573,182 125,1063 217,770 568,795 616,354 460,128 321,739 105,449 559,877 504,1017 442,997 370,967 425,967 337,1000 358,700 164,574 665,351 364,198 331,382 250,552 203,624 299,922 543,679 457,676 499,618 116,959 191,363 619,287 459,141 584,904 140,951 316,903 473,668 160,594 406,826 574,887 604,415 603,207 296,266 354,142 355,884 15,1001 87,1036 388,820 535,949 503,730 527,687 435,627 414,805 569,278 402,323 522,188 278,215 534,173 298,362 308,181 240,592 162,581 226,623 609,1074 122,850 184,826 333,802 48,1079 106,1007 76,1058 266,916 191,106 275,341 195,1005 716,1041 705,918 545,783 17,1045 528,700 400,648 542,428 128,951 5,1042 79,1068 395,1014 93,1070 246,745 201,614 549,200 668,710 106,1028 561,851 604,794 351,762 555,631 211,647 148,185 561,181 676,406 598,244 366,103 467,759 464,814 319,963 404,885 481,362 369,1067 202,1057 279,246 350,163 333,146 510,365 633,288 454,106 102,299 380,423 526,288 512,696 479,687 7,1009 137,1074 45,1061 599,889 372,211 362,1039 470,1022 329,799 349,675 95,863 158,949 542,1056 274,963 389,1050 607,1078 152,1068 353,183 657,1056 417,1064 258,1078 693,1043 515,39 609,448 620,604 324,119 555,182 270,227 145,446 387,1047 460,996 374,754 477,1000 326,943 625,1023 493,1048 433,921 335,973 88,1041 715,1062 571,188 546,215 467,247 375,267 499,456 485,345 328,339 556,1037 108,997 271,797 24,969 87,1026 297,1013 82,979 240,1077 644,1073 151,829 111,876 182,1078 440,360 462,506 517,276 366,404 472,505 366,217 538,278 506,575 530,137 72,441 274,306 465,192 321,324 96,528 430,317 245,326 355,61 622,495 621,264 574,726 138,421 367,496 338,111 291,298 228,405 159,402 141,661 294,437 160,149 350,1015 424,604 86,967 625,369 308,431 506,156 585,255 257,245 229,138 261,652 630,321" fill="none" stroke="blue" stroke-width="1"/>
</svg>
  